<?xml version="1.0" encoding="utf-8"?>
<!-- Generator: Adobe Illustrator 21.0.2, SVG Export Plug-In . SVG Version: 6.00 Build 0)  -->
<svg version="1.1" id="logo" xmlns="http://www.w3.org/2000/svg" xmlns:xlink="http://www.w3.org/1999/xlink" x="0px" y="0px"
	 viewBox="0 0 72 72" style="enable-background:new 0 0 72 72;" xml:space="preserve">
<style type="text/css">
	.st0{fill:#282828;}
</style>
<path id="_x3C_logo_x5F_j_Path_x3E_" class="st0" d="M22.6,19H30v25.5c0,3.5-1.2,6.3-3.5,8.4C24.2,55,21.2,56,17.7,56
	c-3.9,0-6.9-0.9-9.2-2.8c-2.2-1.9-3.3-4.6-3.2-8.2l0.1-0.2h7.2c0,1.9,0.5,3.3,1.4,4.2c0.9,0.9,2.2,1.3,3.8,1.3
	c1.4,0,2.5-0.5,3.5-1.6c1-1,1.4-2.5,1.4-4.3V19z"/>
<path id="_x3C_logo_x5F_d_Path_x3E_" class="st0" d="M36.8,55.5V19h12.7c4.5,0,8.2,1.4,11.2,4.3c2.9,2.8,4.4,6.5,4.4,11v6
	c0,4.5-1.5,8.1-4.4,11c-2.9,2.8-6.6,4.2-11.2,4.2H36.8z M44.2,24.6v25.2h4.9c2.7,0,4.7-0.9,6.2-2.7c1.5-1.8,2.3-4.1,2.3-6.9v-6.1
	c0-2.8-0.8-5.1-2.3-6.9c-1.5-1.8-3.6-2.7-6.2-2.7H44.2z"/>
</svg>
